<svg xmlns="http://www.w3.org/2000/svg" viewBox="0 0 100 100" width="100" height="100">
  <defs>
    <linearGradient id="bg" x1="0%" y1="0%" x2="100%" y2="100%">
      <stop offset="0%" stop-color="#FF9F1C"/>
      <stop offset="50%" stop-color="#e8c44a"/>
      <stop offset="100%" stop-color="#2EC4B6"/>
    </linearGradient>
    <linearGradient id="pin" x1="0%" y1="0%" x2="100%" y2="100%">
      <stop offset="0%" stop-color="#FF6B35"/>
      <stop offset="100%" stop-color="#2EC4B6"/>
    </linearGradient>
  </defs>
  <!-- Rounded square background -->
  <rect width="100" height="100" rx="22" fill="url(#bg)"/>
  <!-- Open book -->
  <path d="M18 65 Q18 70 23 70 L50 65 L77 70 Q82 70 82 65 L82 38 Q82 33 77 33 L50 38 L23 33 Q18 33 18 38 Z" fill="none" stroke="white" stroke-width="3.5" stroke-linejoin="round"/>
  <line x1="50" y1="38" x2="50" y2="65" stroke="white" stroke-width="3"/>
  <!-- Map pin body -->
  <path d="M50 22 C43 22 37 28 37 35 C37 45 50 58 50 58 C50 58 63 45 63 35 C63 28 57 22 50 22 Z" fill="url(#pin)" stroke="white" stroke-width="1.5"/>
  <!-- Pin circle -->
  <circle cx="50" cy="35" r="5" fill="white"/>
  <!-- Chef hat -->
  <ellipse cx="50" cy="20" rx="10" ry="6" fill="white"/>
  <rect x="42" y="17" width="16" height="7" rx="1" fill="white"/>
  <rect x="44" y="12" width="12" height="8" rx="6" fill="white"/>
</svg>
